<svg xmlns="http://www.w3.org/2000/svg" viewBox="0 0 201.68 201.68"><defs><style>.cls-1{fill:none;stroke:#fff;stroke-miterlimit:10;}</style></defs><g id="Layer_2" data-name="Layer 2"><g id="illustration"><line class="cls-1" x1="33.69" y1="100.84" x2="167.99" y2="100.84"/><line class="cls-1" x1="100.84" y1="167.99" x2="100.84" y2="33.69"/><line class="cls-1" x1="53.36" y1="148.32" x2="148.32" y2="53.36"/><line class="cls-1" x1="148.32" y1="148.32" x2="53.36" y2="53.36"/><circle class="cls-1" cx="100.84" cy="100.84" r="11.62"/><path class="cls-1" d="M92,33.69C92,40.47,96,46,100.84,46"/><path class="cls-1" d="M109.65,33.69c0,6.78-3.94,12.26-8.81,12.26"/><path class="cls-1" d="M59.21,154.93c4.79-4.79,5.88-11.45,2.43-14.89"/><path class="cls-1" d="M46.75,142.47c4.79-4.79,11.45-5.88,14.89-2.43"/><path class="cls-1" d="M142.13,47.53c-4.79,4.79-5.88,11.45-2.43,14.9"/><path class="cls-1" d="M154.59,60c-4.79,4.79-11.45,5.88-14.89,2.44"/><path class="cls-1" d="M47.53,60c4.79,4.79,11.45,5.88,14.9,2.44"/><path class="cls-1" d="M60,47.53c4.79,4.79,5.88,11.45,2.44,14.9"/><path class="cls-1" d="M155,142.56c-4.79-4.79-11.45-5.88-14.89-2.43"/><path class="cls-1" d="M142.56,155c-4.79-4.79-5.88-11.45-2.43-14.89"/><path class="cls-1" d="M92,168c0-6.77,3.94-12.26,8.81-12.26"/><path class="cls-1" d="M109.65,168c0-6.77-3.94-12.26-8.81-12.26"/><path class="cls-1" d="M168,92c-6.77,0-12.26,3.94-12.26,8.81"/><path class="cls-1" d="M168,109.65c-6.77,0-12.26-3.94-12.26-8.81"/><path class="cls-1" d="M33.69,92C40.47,92,46,96,46,100.84"/><path class="cls-1" d="M33.69,109.65c6.78,0,12.26-3.94,12.26-8.81"/><line class="cls-1" x1="95.06" y1="51.75" x2="106.62" y2="51.75"/><line class="cls-1" x1="95.06" y1="54.98" x2="106.62" y2="54.98"/><line class="cls-1" x1="95.06" y1="58.21" x2="106.62" y2="58.21"/><line class="cls-1" x1="63.44" y1="71.61" x2="71.61" y2="63.44"/><line class="cls-1" x1="65.72" y1="73.89" x2="73.89" y2="65.72"/><line class="cls-1" x1="68.01" y1="76.18" x2="76.18" y2="68.01"/><line class="cls-1" x1="139.47" y1="70.38" x2="131.3" y2="62.21"/><line class="cls-1" x1="137.18" y1="72.67" x2="129.01" y2="64.5"/><line class="cls-1" x1="134.9" y1="74.95" x2="126.73" y2="66.78"/><line class="cls-1" x1="74.95" y1="134.9" x2="66.78" y2="126.73"/><line class="cls-1" x1="72.67" y1="137.18" x2="64.5" y2="129.01"/><line class="cls-1" x1="70.38" y1="139.47" x2="62.21" y2="131.3"/><line class="cls-1" x1="125.51" y1="133.68" x2="133.68" y2="125.51"/><line class="cls-1" x1="127.79" y1="135.96" x2="135.96" y2="127.79"/><line class="cls-1" x1="130.08" y1="138.24" x2="138.24" y2="130.08"/><line class="cls-1" x1="95.11" y1="143.47" x2="106.66" y2="143.47"/><line class="cls-1" x1="95.11" y1="146.7" x2="106.66" y2="146.7"/><line class="cls-1" x1="95.11" y1="149.93" x2="106.66" y2="149.93"/><line class="cls-1" x1="150.37" y1="106.62" x2="150.37" y2="95.06"/><line class="cls-1" x1="147.14" y1="106.62" x2="147.14" y2="95.06"/><line class="cls-1" x1="143.91" y1="106.62" x2="143.91" y2="95.06"/><line class="cls-1" x1="58.21" y1="106.62" x2="58.21" y2="95.06"/><line class="cls-1" x1="54.98" y1="106.62" x2="54.98" y2="95.06"/><line class="cls-1" x1="51.75" y1="106.62" x2="51.75" y2="95.06"/><circle class="cls-1" cx="100.84" cy="100.84" r="100.34"/><circle class="cls-1" cx="100.84" cy="100.84" r="76.6"/><polygon class="cls-1" points="100.84 14.86 94.87 8.66 100.84 2.46 106.81 8.66 100.84 14.86"/><line class="cls-1" x1="100.84" y1="14.86" x2="95.01" y2="22.38"/><line class="cls-1" x1="100.84" y1="14.86" x2="106.67" y2="22.38"/><line class="cls-1" x1="121.48" y1="4.46" x2="112.85" y2="22.78"/><line class="cls-1" x1="118.91" y1="9.92" x2="129.45" y2="8.21"/><line class="cls-1" x1="117.17" y1="13.62" x2="127.71" y2="11.91"/><line class="cls-1" x1="146.59" y1="13.37" x2="136.42" y2="30.88"/><line class="cls-1" x1="146.36" y1="13.49" x2="151.4" y2="22.9"/><line class="cls-1" x1="144.31" y1="17.02" x2="149.35" y2="26.44"/><line class="cls-1" x1="126.73" y1="25.29" x2="138.22" y2="9.02"/><line class="cls-1" x1="130.98" y1="28.22" x2="138.22" y2="9.02"/><line class="cls-1" x1="160.65" y1="22.13" x2="146.83" y2="36.7"/><polygon class="cls-1" points="158.75 34.16 156.13 26.9 151.35 31.93 158.75 34.16"/><line class="cls-1" x1="170.07" y1="31" x2="154.59" y2="43.25"/><line class="cls-1" x1="169.78" y1="31.32" x2="171.66" y2="40.42"/><line class="cls-1" x1="171.96" y1="40.1" x2="165.42" y2="38.88"/><line class="cls-1" x1="165.98" y1="38.71" x2="161.65" y2="50.97"/><line class="cls-1" x1="183.49" y1="47.83" x2="170.27" y2="45.29"/><line class="cls-1" x1="166.68" y1="58.21" x2="170.82" y2="45.39"/><line class="cls-1" x1="168.61" y1="62.46" x2="190.75" y2="61.18"/><line class="cls-1" x1="173.74" y1="70.19" x2="185.74" y2="52.68"/><line class="cls-1" x1="192.77" y1="66.56" x2="174.82" y2="75.18"/><line class="cls-1" x1="192.77" y1="66.56" x2="191.22" y2="73.35"/><line class="cls-1" x1="185.38" y1="70.11" x2="191.65" y2="73.14"/><line class="cls-1" x1="196.21" y1="77.13" x2="176.88" y2="81.93"/><line class="cls-1" x1="198.72" y1="87.23" x2="179.39" y2="92.03"/><line class="cls-1" x1="192.12" y1="78.15" x2="190.66" y2="89.23"/><line class="cls-1" x1="190.07" y1="78.36" x2="188.61" y2="89.44"/><polygon class="cls-1" points="100.93 187.41 106.9 193.61 100.93 199.81 94.96 193.61 100.93 187.41"/><line class="cls-1" x1="100.93" y1="187.41" x2="106.76" y2="179.89"/><line class="cls-1" x1="100.93" y1="187.41" x2="95.1" y2="179.89"/><line class="cls-1" x1="80.29" y1="197.81" x2="88.92" y2="179.49"/><line class="cls-1" x1="82.87" y1="192.35" x2="72.32" y2="194.06"/><line class="cls-1" x1="84.61" y1="188.65" x2="74.06" y2="190.36"/><line class="cls-1" x1="55.19" y1="188.9" x2="65.35" y2="171.38"/><line class="cls-1" x1="55.42" y1="188.78" x2="50.37" y2="179.37"/><line class="cls-1" x1="57.47" y1="185.25" x2="52.42" y2="175.83"/><line class="cls-1" x1="75.04" y1="176.97" x2="63.55" y2="193.25"/><line class="cls-1" x1="70.79" y1="174.05" x2="63.55" y2="193.25"/><line class="cls-1" x1="41.12" y1="180.14" x2="54.94" y2="165.57"/><polygon class="cls-1" points="43.03 168.11 45.64 175.37 50.42 170.34 43.03 168.11"/><line class="cls-1" x1="31.7" y1="171.27" x2="47.18" y2="159.02"/><line class="cls-1" x1="31.99" y1="170.95" x2="30.11" y2="161.85"/><line class="cls-1" x1="29.81" y1="162.17" x2="36.35" y2="163.39"/><line class="cls-1" x1="35.8" y1="163.56" x2="40.12" y2="151.3"/><line class="cls-1" x1="18.28" y1="154.44" x2="31.5" y2="156.98"/><line class="cls-1" x1="35.1" y1="144.06" x2="30.95" y2="156.88"/><line class="cls-1" x1="33.16" y1="139.81" x2="11.02" y2="141.09"/><line class="cls-1" x1="28.04" y1="132.08" x2="16.03" y2="149.59"/><line class="cls-1" x1="9" y1="135.71" x2="26.95" y2="127.09"/><line class="cls-1" x1="9" y1="135.71" x2="10.55" y2="128.92"/><line class="cls-1" x1="16.39" y1="132.16" x2="10.12" y2="129.13"/><line class="cls-1" x1="5.56" y1="125.14" x2="24.89" y2="120.33"/><line class="cls-1" x1="3.06" y1="115.04" x2="22.38" y2="110.24"/><line class="cls-1" x1="9.65" y1="124.12" x2="11.11" y2="113.04"/><line class="cls-1" x1="11.7" y1="123.91" x2="13.16" y2="112.82"/><line class="cls-1" x1="61.37" y1="11.48" x2="64.93" y2="31.41"/><line class="cls-1" x1="62.43" y1="17.42" x2="70.04" y2="9.93"/><line class="cls-1" x1="63.15" y1="21.44" x2="70.76" y2="13.95"/><line class="cls-1" x1="38.45" y1="24.03" x2="52.01" y2="39.07"/><line class="cls-1" x1="38.7" y1="24.1" x2="35.71" y2="34.35"/><line class="cls-1" x1="41.44" y1="27.13" x2="38.44" y2="37.38"/><line class="cls-1" x1="60.34" y1="31.6" x2="45.75" y2="18.05"/><line class="cls-1" x1="56.78" y1="35.34" x2="45.75" y2="18.05"/><line class="cls-1" x1="26.5" y1="35.5" x2="43.03" y2="46.91"/><polygon class="cls-1" points="30.84 46.88 31.9 39.23 37.62 43.17 30.84 46.88"/><line class="cls-1" x1="19.1" y1="46.12" x2="36.78" y2="54.91"/><line class="cls-1" x1="19.46" y1="46.37" x2="19.49" y2="55.66"/><line class="cls-1" x1="19.14" y1="55.41" x2="25.28" y2="52.87"/><line class="cls-1" x1="24.71" y1="52.82" x2="31.46" y2="63.92"/><line class="cls-1" x1="9.44" y1="65.35" x2="21.86" y2="60.14"/><line class="cls-1" x1="28.04" y1="72.04" x2="21.34" y2="60.35"/><line class="cls-1" x1="27.02" y1="76.6" x2="5.09" y2="79.91"/><line class="cls-1" x1="23.6" y1="85.22" x2="8.24" y2="70.56"/><line class="cls-1" x1="4.22" y1="85.59" x2="23.56" y2="90.33"/><line class="cls-1" x1="4.22" y1="85.59" x2="7.14" y2="91.91"/><line class="cls-1" x1="12.19" y1="87.54" x2="6.68" y2="91.8"/><line class="cls-1" x1="86.73" y1="6.07" x2="76.91" y2="7.59"/><line class="cls-1" x1="77.39" y1="7.45" x2="80.51" y2="18.19"/><line class="cls-1" x1="78.34" y1="23.58" x2="88.15" y2="22.07"/><line class="cls-1" x1="87.68" y1="22.2" x2="84.56" y2="11.47"/><line class="cls-1" x1="2.53" y1="108.95" x2="22.45" y2="108.7"/><line class="cls-1" x1="2.37" y1="95.89" x2="22.28" y2="95.64"/><line class="cls-1" x1="3.13" y1="108.94" x2="10.88" y2="96.17"/><line class="cls-1" x1="11.04" y1="108.65" x2="2.97" y2="96.08"/><line class="cls-1" x1="136.24" y1="191.66" x2="133.71" y2="171.57"/><line class="cls-1" x1="135.48" y1="185.67" x2="127.5" y2="192.76"/><line class="cls-1" x1="134.97" y1="181.61" x2="126.99" y2="188.7"/><line class="cls-1" x1="159.77" y1="180.3" x2="147" y2="164.58"/><line class="cls-1" x1="159.52" y1="180.22" x2="163.04" y2="170.14"/><line class="cls-1" x1="156.95" y1="177.05" x2="160.47" y2="166.97"/><line class="cls-1" x1="138.3" y1="171.61" x2="152.18" y2="185.9"/><line class="cls-1" x1="142.04" y1="168.06" x2="152.18" y2="185.9"/><line class="cls-1" x1="172.3" y1="169.47" x2="156.38" y2="157.22"/><polygon class="cls-1" points="168.54 157.87 167.09 165.46 161.59 161.22 168.54 157.87"/><line class="cls-1" x1="180.23" y1="159.24" x2="163.03" y2="149.54"/><line class="cls-1" x1="179.89" y1="158.97" x2="180.33" y2="149.68"/><line class="cls-1" x1="180.67" y1="149.95" x2="174.41" y2="152.17"/><line class="cls-1" x1="174.98" y1="152.26" x2="168.8" y2="140.82"/><line class="cls-1" x1="190.86" y1="140.53" x2="178.2" y2="145.09"/><line class="cls-1" x1="172.64" y1="132.89" x2="178.73" y2="144.9"/><line class="cls-1" x1="173.89" y1="128.39" x2="195.96" y2="126.21"/><line class="cls-1" x1="177.75" y1="119.96" x2="192.33" y2="135.38"/><line class="cls-1" x1="197.12" y1="120.58" x2="178.05" y2="114.86"/><line class="cls-1" x1="197.12" y1="120.58" x2="194.53" y2="114.12"/><line class="cls-1" x1="189.26" y1="118.22" x2="194.99" y2="114.26"/><line class="cls-1" x1="112.3" y1="197.18" x2="122.18" y2="196.17"/><line class="cls-1" x1="121.7" y1="196.28" x2="119.14" y2="185.4"/><line class="cls-1" x1="121.59" y1="180.12" x2="111.71" y2="181.13"/><line class="cls-1" x1="112.19" y1="181.02" x2="114.75" y2="191.9"/><line class="cls-1" x1="200.01" y1="97.34" x2="180.11" y2="96.57"/><line class="cls-1" x1="199.5" y1="110.39" x2="179.6" y2="109.61"/><line class="cls-1" x1="199.42" y1="97.32" x2="191.01" y2="109.67"/><line class="cls-1" x1="191.5" y1="97.2" x2="198.92" y2="110.17"/></g></g></svg>